<svg width="24" height="24" viewBox="0 0 24 24" fill="none" xmlns="http://www.w3.org/2000/svg">
<circle cx="12" cy="12" r="12" fill="#9B51E0"/>
<path d="M1.36523 15.8L4.44629 8.41235H5.51562L8.62598 15.8H7.11719L6.31641 13.8909H3.69922L2.87891 15.8H1.36523ZM4.19727 12.5579H5.7793L4.98828 10.3215L4.19727 12.5579Z" fill="white"/>
<path d="M9.37793 15.8V8.41235H10.9307C11.2269 8.41235 11.5182 8.42537 11.8047 8.45142C12.0911 8.47746 12.3581 8.51978 12.6055 8.57837C12.8561 8.63371 13.1051 8.71997 13.3525 8.83716C13.5999 8.95109 13.8262 9.09595 14.0312 9.27173C14.4284 9.60376 14.7393 10.0318 14.9639 10.5559C15.1885 11.0767 15.3008 11.6041 15.3008 12.1379C15.3008 12.3951 15.2715 12.6555 15.2129 12.9192C15.1576 13.1829 15.0745 13.4384 14.9639 13.6858C14.8532 13.9332 14.7197 14.1627 14.5635 14.3743C14.4105 14.5859 14.2331 14.7779 14.0312 14.9504C13.6309 15.2922 13.1849 15.5201 12.6934 15.634C12.2051 15.7447 11.6273 15.8 10.96 15.8H9.37793ZM10.75 14.4719H10.9209C11.2139 14.4719 11.4759 14.4622 11.707 14.4426C11.9414 14.4231 12.1725 14.3759 12.4004 14.301C12.6315 14.2229 12.8447 14.1122 13.04 13.969C13.3232 13.7542 13.5413 13.4872 13.6943 13.1682C13.8506 12.8459 13.9287 12.5025 13.9287 12.1379C13.9287 11.884 13.8913 11.635 13.8164 11.3909C13.7415 11.1435 13.6292 10.9172 13.4795 10.7122C13.333 10.5038 13.1556 10.3264 12.9473 10.1799C12.6673 9.98787 12.3646 9.86743 12.0391 9.8186C11.7135 9.76652 11.3164 9.74048 10.8477 9.74048H10.75V14.4719Z" fill="white"/>
<path d="M16.3799 15.8V8.41235H17.9326C18.2288 8.41235 18.5202 8.42537 18.8066 8.45142C19.0931 8.47746 19.36 8.51978 19.6074 8.57837C19.8581 8.63371 20.1071 8.71997 20.3545 8.83716C20.6019 8.95109 20.8281 9.09595 21.0332 9.27173C21.4303 9.60376 21.7412 10.0318 21.9658 10.5559C22.1904 11.0767 22.3027 11.6041 22.3027 12.1379C22.3027 12.3951 22.2734 12.6555 22.2148 12.9192C22.1595 13.1829 22.0765 13.4384 21.9658 13.6858C21.8551 13.9332 21.7217 14.1627 21.5654 14.3743C21.4124 14.5859 21.235 14.7779 21.0332 14.9504C20.6328 15.2922 20.1868 15.5201 19.6953 15.634C19.207 15.7447 18.6292 15.8 17.9619 15.8H16.3799ZM17.752 14.4719H17.9229C18.2158 14.4719 18.4779 14.4622 18.709 14.4426C18.9434 14.4231 19.1745 14.3759 19.4023 14.301C19.6335 14.2229 19.8467 14.1122 20.042 13.969C20.3252 13.7542 20.5433 13.4872 20.6963 13.1682C20.8525 12.8459 20.9307 12.5025 20.9307 12.1379C20.9307 11.884 20.8932 11.635 20.8184 11.3909C20.7435 11.1435 20.6312 10.9172 20.4814 10.7122C20.335 10.5038 20.1576 10.3264 19.9492 10.1799C19.6693 9.98787 19.3665 9.86743 19.041 9.8186C18.7155 9.76652 18.3184 9.74048 17.8496 9.74048H17.752V14.4719Z" fill="white"/>
</svg>
