<svg width="24" height="24" viewBox="0 0 24 24" fill="none" xmlns="http://www.w3.org/2000/svg">
<path d="M19.3111 3H4.7L2 10.875V21H5.33333V18.75H18.6667V21H22V10.875L19.3111 3ZM5.88889 15.375C4.96667 15.375 4.22222 14.6213 4.22222 13.6875C4.22222 12.7537 4.96667 12 5.88889 12C6.81111 12 7.55556 12.7537 7.55556 13.6875C7.55556 14.6213 6.81111 15.375 5.88889 15.375ZM18.1111 15.375C17.1889 15.375 16.4444 14.6213 16.4444 13.6875C16.4444 12.7537 17.1889 12 18.1111 12C19.0333 12 19.7778 12.7537 19.7778 13.6875C19.7778 14.6213 19.0333 15.375 18.1111 15.375ZM4.22222 9.75L5.88889 4.6875H18.1111L19.7778 9.75H4.22222Z" fill="black"/>
</svg>
