<svg width="24" height="24" viewBox="0 0 24 24" fill="none" xmlns="http://www.w3.org/2000/svg">
<circle cx="12" cy="12" r="12" fill="#303C42"/>
<path d="M7.11444 13.5095H8.54489C8.38351 13.9026 8.14143 14.2513 7.81866 14.5557C7.49589 14.8601 7.12911 15.0936 6.71831 15.2562C6.30751 15.4187 5.88644 15.5 5.45511 15.5C4.99149 15.5 4.54842 15.4084 4.12588 15.2251C3.70335 15.0389 3.33363 14.7833 3.01673 14.4582C2.69982 14.1331 2.45041 13.7563 2.26849 13.3277C2.0895 12.8992 2 12.4485 2 11.9756C2 11.3579 2.15552 10.7816 2.46655 10.2467C2.77758 9.70878 3.19572 9.2832 3.72095 8.96992C4.24619 8.65664 4.8125 8.5 5.41989 8.5C5.86884 8.5 6.30164 8.58275 6.71831 8.74826C7.13791 8.91376 7.51056 9.15168 7.83627 9.462C8.16197 9.76937 8.40992 10.1299 8.58011 10.5437H7.17606C6.96772 10.2866 6.70657 10.0826 6.39261 9.93192C6.08157 9.78119 5.76027 9.70583 5.4287 9.70583C5.0267 9.70583 4.65845 9.81222 4.32394 10.025C3.98944 10.2349 3.72389 10.5171 3.52729 10.8718C3.33363 11.2235 3.2368 11.6062 3.2368 12.0199C3.2368 12.413 3.33656 12.7854 3.53609 13.1371C3.73856 13.4859 4.00998 13.7651 4.35035 13.975C4.69073 14.1848 5.05311 14.2897 5.4375 14.2897C6.06837 14.2897 6.62735 14.0297 7.11444 13.5095Z" fill="white"/>
<path d="M9.37676 15.336V8.62856H11.0625L12.8495 13.7578L14.6585 8.62856H16.3354V15.336H15.103V10.3043L13.382 15.336H12.3345L10.6136 10.3043V15.336H9.37676Z" fill="white"/>
<path d="M17.493 15.336V8.62856H19.4252C19.8242 8.63447 20.1558 8.66698 20.4199 8.72609C20.684 8.78225 20.929 8.90638 21.1549 9.09848C21.3134 9.23148 21.4498 9.38664 21.5643 9.56396C21.6816 9.73834 21.7711 9.92749 21.8327 10.1314C21.8973 10.3324 21.9296 10.5393 21.9296 10.7521C21.9296 10.9974 21.8782 11.256 21.7755 11.5279C21.6758 11.7998 21.5437 12.0273 21.3794 12.2106C21.086 12.5298 20.6928 12.7455 20.1998 12.8578L22 15.336H20.4771L18.7474 12.7647H18.7298V15.336H17.493ZM18.7298 11.8205H19.4032C19.8638 11.8205 20.1925 11.7274 20.3891 11.5412C20.5916 11.3461 20.6928 11.1038 20.6928 10.8141C20.6928 10.6663 20.662 10.5245 20.6004 10.3885C20.5387 10.2526 20.4492 10.1432 20.3319 10.0605C20.2116 9.96591 20.0825 9.90532 19.9445 9.87872C19.8096 9.84917 19.632 9.83439 19.412 9.83439H18.7298V11.8205Z" fill="white"/>
</svg>
