<svg width="25" height="23" viewBox="0 0 25 23" fill="none" xmlns="http://www.w3.org/2000/svg">
<path d="M23.5 21.3866C19.6408 18.1129 12.1616 13.2481 2.10585 15.0782C3.03265 13.9907 3.58995 12.6004 3.92862 11.3682C4.19632 10.3943 4.33866 9.47872 4.41429 8.80792C4.45218 8.47188 4.47351 8.19564 4.48539 8.00221C4.49134 7.90546 4.49493 7.82931 4.49705 7.77663C4.49811 7.75029 4.4988 7.72981 4.49924 7.71554L4.49971 7.69912L4.49971 7.69884L4.50026 7.68637C4.50075 7.67421 4.50135 7.6572 4.50191 7.63558C4.50304 7.59235 4.504 7.53062 4.5036 7.45233C4.5028 7.29582 4.49655 7.07266 4.47513 6.7983C4.43237 6.25048 4.32874 5.49348 4.08454 4.65302C3.69922 3.32681 2.95771 1.77508 1.54037 0.521484H23.5V21.3866Z" fill="#303C42" stroke="#303C42"/>
<path d="M12.5 5.128V3.59609C12.5 3.46066 12.5527 3.33077 12.6464 3.23501C12.7402 3.13925 12.8674 3.08545 13 3.08545H17C17.1326 3.08545 17.2598 3.13925 17.3536 3.23501C17.4473 3.33077 17.5 3.46066 17.5 3.59609V5.128H20V6.14928H19V12.7876C19 12.923 18.9473 13.0529 18.8536 13.1487C18.7598 13.2444 18.6326 13.2982 18.5 13.2982H11.5C11.3674 13.2982 11.2402 13.2444 11.1464 13.1487C11.0527 13.0529 11 12.923 11 12.7876V6.14928H10V5.128H12.5ZM15.707 9.21311L16.591 8.3103L15.884 7.58826L15 8.49107L14.116 7.58826L13.409 8.3103L14.293 9.21311L13.409 10.1159L14.116 10.838L15 9.93515L15.884 10.838L16.591 10.1159L15.707 9.21311ZM13.5 4.10673V5.128H16.5V4.10673H13.5Z" fill="white"/>
<path d="M0 16.3619V0.0214844C9.91909 6.20622 22.7093 21.2549 23.9344 22.4728L24 22.4896C24.0561 22.5791 24.0318 22.5697 23.9344 22.4728L0 16.3619Z" fill="white" fill-opacity="0.4"/>
</svg>
