<svg width="18" height="20" viewBox="0 0 18 20" fill="none" xmlns="http://www.w3.org/2000/svg">
<path d="M15.7201 12.9907V8.32045C15.7201 5.03102 13.471 2.28171 10.4535 1.55931C10.4357 0.694723 9.74414 0 8.89124 0C8.03739 0 7.34212 0.697586 7.32429 1.55931C4.30675 2.28171 2.05767 5.03102 2.05767 8.32045V12.9907C0.920463 12.9907 0 13.9269 0 15.0835V16.5598H17.7778V15.0835C17.7778 13.9269 16.8573 12.9907 15.7201 12.9907Z" fill="#EB342E"/>
<path d="M8.89142 20.0001C10.2538 20.0001 11.3929 19.0668 11.7523 17.7957H6.02588C6.38524 19.0677 7.52527 20.0001 8.89142 20.0001Z" fill="#EB342E"/>
</svg>
