<svg width="25" height="24" viewBox="0 0 25 24" fill="none" xmlns="http://www.w3.org/2000/svg">
<path d="M3.47561 21C3.21686 21 2.96871 20.8946 2.78575 20.7071C2.60279 20.5196 2.5 20.2652 2.5 20V4C2.5 3.73478 2.60279 3.48043 2.78575 3.29289C2.96871 3.10536 3.21686 3 3.47561 3H10.7088L12.66 5H20.061C20.3197 5 20.5679 5.10536 20.7508 5.29289C20.9338 5.48043 21.0366 5.73478 21.0366 6V9H4.45122V18.996L6.40244 11H22.5L20.2463 20.243C20.1935 20.4592 20.0717 20.6512 19.9002 20.7883C19.7287 20.9255 19.5175 21 19.3 21H3.47561Z" fill="#303C42"/>
</svg>
