<svg width="20" height="20" viewBox="0 0 20 20" fill="none" xmlns="http://www.w3.org/2000/svg">
<path d="M9.99935 1.6665C5.39742 1.6665 1.66602 5.3979 1.66602 9.99984C1.66602 14.6018 5.39742 18.3332 9.99935 18.3332C14.6013 18.3332 18.3327 14.6018 18.3327 9.99984C18.3327 5.3979 14.6013 1.6665 9.99935 1.6665ZM12.6798 10.1282L8.61728 13.0839C8.59501 13.0999 8.56876 13.1095 8.54141 13.1115C8.51406 13.1136 8.48667 13.1081 8.46226 13.0956C8.43785 13.0831 8.41735 13.0641 8.40302 13.0407C8.38869 13.0173 8.38109 12.9904 8.38105 12.963V7.05527C8.38096 7.02779 8.38848 7.00082 8.40278 6.97735C8.41708 6.95388 8.43759 6.93483 8.46206 6.92231C8.48652 6.90979 8.51397 6.90429 8.54137 6.90642C8.56877 6.90854 8.59504 6.91822 8.61728 6.93436L12.6798 9.88823C12.699 9.9018 12.7146 9.91978 12.7254 9.94066C12.7362 9.96154 12.7419 9.9847 12.7419 10.0082C12.7419 10.0317 12.7362 10.0549 12.7254 10.0758C12.7146 10.0966 12.699 10.1146 12.6798 10.1282Z" fill="black"/>
</svg>
